HIERARCHY
ROOT hip
{
	OFFSET 0.000000 0.000000 0.000000 
	CHANNELS 6 Xposition Yposition Zposition Zrotation Xrotation Yrotation
	JOINT abdomen
	{
		OFFSET 0.000000 3.402643 0.000000 
		CHANNELS 3 Zrotation Xrotation Yrotation
		JOINT chest
		{
			OFFSET 0.000000 8.438565 -0.680529 
			CHANNELS 3 Zrotation Xrotation Yrotation
			JOINT neck
			{
				OFFSET 0.000000 10.207942 -0.272212 
				CHANNELS 3 Zrotation Xrotation Yrotation
				JOINT head
				{
					OFFSET 0.000000 3.130431 0.000000 
					CHANNELS 3 Zrotation Xrotation Yrotation
					End Site
					{
						OFFSET 0.000000 3.130435 0.000000 
					}
				}
			}
			JOINT lCollar
			{
				OFFSET 3.470700 6.669187 -0.816635 
				CHANNELS 3 Zrotation Xrotation Yrotation
				JOINT lShldr
				{
					OFFSET 3.198488 0.000000 0.000000 
					CHANNELS 3 Zrotation Xrotation Yrotation
					JOINT lForeArm
					{
						OFFSET 10.139888 0.000000 0.000000 
						CHANNELS 3 Zrotation Xrotation Yrotation
						JOINT lHand
						{
							OFFSET 8.370511 0.000000 0.000000 
							CHANNELS 3 Zrotation Xrotation Yrotation
							End Site
							{
								OFFSET 4.083176 0.000000 0.000000 
							}
						}
					}
				}
			}
			JOINT rCollar
			{
				OFFSET -3.470700 6.669187 -0.816635 
				CHANNELS 3 Zrotation Xrotation Yrotation
				JOINT rShldr
				{
					OFFSET -3.198488 0.000000 0.000000 
					CHANNELS 3 Zrotation Xrotation Yrotation
					JOINT rForeArm
					{
						OFFSET -10.139888 0.000000 0.000000 
						CHANNELS 3 Zrotation Xrotation Yrotation
						JOINT rHand
						{
							OFFSET -8.370511 0.000000 0.000000 
							CHANNELS 3 Zrotation Xrotation Yrotation
							End Site
							{
								OFFSET -4.083176 0.000000 0.000000 
							}
						}
					}
				}
			}
		}
	}
	JOINT lThigh
	{
		OFFSET 5.308129 -1.633274 1.361059 
		CHANNELS 3 Zrotation Xrotation Yrotation
		JOINT lShin
		{
			OFFSET -2.041588 -20.007561 0.000000 
			CHANNELS 3 Zrotation Xrotation Yrotation
			JOINT lFoot
			{
				OFFSET 0.000000 -19.190928 -1.224953 
				CHANNELS 3 Zrotation Xrotation Yrotation
				End Site
				{
					OFFSET 0.000000 -2.449906 4.627600 
				}
			}
		}
	}
	JOINT rThigh
	{
		OFFSET -5.308129 -1.633274 1.361059 
		CHANNELS 3 Zrotation Xrotation Yrotation
		JOINT rShin
		{
			OFFSET 2.041588 -20.007561 0.000000 
			CHANNELS 3 Zrotation Xrotation Yrotation
			JOINT rFoot
			{
				OFFSET 0.000000 -19.190928 -1.224953 
				CHANNELS 3 Zrotation Xrotation Yrotation
				End Site
				{
					OFFSET 0.000000 -2.449906 4.627600 
				}
			}
		}
	}
}
MOTION
Frames: 16
Frame Time: 0.016667
-0.011131 47.216377 5.299300 -5.283210 1.855470 74.384499 1.835100 14.452800 -2.366590 -1.138740 -21.158100 -3.885260 5.565560 36.487099 -9.047590 4.018930 22.342800 -3.336080 -1.998780 -0.069785 1.998780 -74.052200 24.208900 -8.403010 -1.559570 -1.581450 -63.627102 -0.086402 -2.646260 0.131454 1.998780 -0.069785 -1.998780 74.939796 3.829130 8.462020 0.380103 1.117290 42.463299 0.099323 22.535000 -0.065200 3.956680 -13.329100 -9.573700 3.401760 32.889702 0.498539 -10.810600 -24.663300 -16.183800 4.827730 -23.728600 -10.532000 -2.300900 40.783100 -1.713870 -6.404310 -40.528999 -4.927850 
0.116966 47.326679 7.102770 -5.371090 1.591790 74.618797 1.906360 14.540000 -2.381860 -1.127930 -21.441401 -3.882010 5.396380 36.508499 -8.801980 4.098610 22.195999 -3.311960 -1.998780 -0.069785 1.998780 -74.906303 22.984200 -6.320130 -1.537100 -1.615910 -62.455399 -0.086420 -3.427520 0.133616 1.998780 -0.069785 -1.998780 75.845802 4.336230 7.888720 0.379953 1.117200 42.453602 0.099134 22.760000 -0.064668 3.797010 -12.929100 -10.300500 3.422750 32.198299 0.484215 -10.815400 -25.717100 -15.342700 4.791600 -23.317200 -10.561200 -2.345260 40.132301 -1.652220 -6.007460 -40.276402 -4.344200 
0.238264 47.437679 8.880150 -5.341800 1.367190 74.433197 1.966430 14.529500 -2.334700 -1.086400 -21.727301 -3.763040 5.273100 36.459900 -8.535460 4.218100 21.980801 -3.281600 -1.998780 -0.069785 1.998780 -75.821899 21.511700 -4.146400 -1.512560 -1.651870 -61.215199 -0.086434 -4.218550 0.125752 1.998780 -0.069785 -1.998780 76.872803 4.757270 7.294260 0.378295 1.116230 42.346100 0.099009 22.906000 -0.064320 3.675000 -12.350700 -10.639300 3.438040 31.595100 0.456059 -10.519600 -26.619499 -14.105400 4.800600 -22.850901 -10.325400 -2.363780 39.523399 -1.637130 -5.691300 -39.852901 -3.913300 
0.352090 47.549778 10.636500 -5.253900 1.162110 73.935097 1.996030 14.490100 -2.257300 -1.041770 -21.975300 -3.579720 5.241700 36.362000 -8.265330 4.377510 21.745899 -3.234680 -1.998780 -0.069785 1.998780 -76.719200 19.750601 -2.027330 -1.485430 -1.689790 -59.887001 -0.086814 -5.283000 0.128053 1.998780 -0.069785 -1.998780 77.999298 5.109490 6.747940 0.375130 1.114390 42.141201 0.098966 22.955000 -0.064203 3.578940 -11.834700 -10.525300 3.460950 31.267599 0.443831 -9.957350 -27.307400 -12.624900 4.879970 -22.402000 -9.859730 -2.397650 38.970600 -1.573800 -5.579710 -39.376099 -3.766740 
0.461823 47.660778 12.379600 -5.146480 0.966796 73.271004 2.035770 14.460200 -2.173700 -0.983213 -22.194000 -3.384600 5.257500 36.247398 -8.034830 4.546780 21.501200 -3.207290 -1.998780 -0.069785 1.998780 -77.601303 17.726999 0.032261 -1.454910 -1.730310 -58.441700 -0.086139 -6.649980 0.130451 1.998780 -0.069785 -1.998780 79.158897 5.385340 6.230620 0.370593 1.111790 41.848400 0.098883 23.052999 -0.063971 3.517290 -11.412700 -10.100700 3.486940 31.205299 0.421427 -9.251440 -27.878201 -10.946700 5.027720 -21.900400 -9.144020 -2.402650 38.313301 -1.566530 -5.648930 -38.877800 -3.899270 
0.571941 47.768978 14.114000 -5.029300 0.781250 72.558098 2.116120 14.469000 -2.123900 -0.929337 -22.392300 -3.230550 5.303050 36.168701 -7.893790 4.696140 21.305401 -3.208450 -1.998780 -0.069785 1.998780 -78.487900 15.448000 2.002190 -1.419690 -1.774580 -56.830299 -0.085551 -8.134980 0.133563 1.998780 -0.069785 -1.998780 80.308998 5.602990 5.712380 0.365588 1.108950 41.526199 0.098780 23.170000 -0.063691 3.436750 -11.151600 -9.602990 3.515420 31.408300 0.388233 -8.432550 -28.462099 -9.141000 5.209630 -21.470501 -8.383180 -2.436460 37.790501 -1.521020 -5.830920 -38.556400 -4.189530 
0.684692 47.873379 15.842200 -4.931640 0.615234 71.854797 2.247320 14.526000 -2.111490 -0.864094 -22.530899 -3.127860 5.388550 36.216801 -7.879410 4.805890 21.226900 -3.245880 -1.998780 -0.069785 1.998780 -79.286102 13.071800 3.760220 -1.379860 -1.821710 -55.072399 -0.084808 -9.774970 0.137034 1.998780 -0.069785 -1.998780 81.426399 5.742410 5.242390 0.360416 1.106060 41.194401 0.098661 23.306999 -0.063365 3.334430 -10.926900 -9.212070 3.523330 31.634300 0.388471 -7.575100 -28.986300 -7.327460 5.349090 -21.060499 -7.741560 -2.470930 37.296902 -1.473120 -6.031530 -38.176601 -4.527220 
0.797520 47.970779 17.564501 -4.853510 0.468750 71.190697 2.379650 14.651100 -2.118900 -0.815664 -22.629999 -3.045330 5.516000 36.380299 -7.973260 4.876150 21.275499 -3.300060 -1.998780 -0.069785 1.998780 -79.926804 10.776800 5.244200 -1.333940 -1.872620 -53.118900 -0.083837 -11.631000 0.141010 1.998780 -0.069785 -1.998780 82.552002 5.764630 4.810370 0.355531 1.103360 40.882000 0.098531 23.452999 -0.063014 3.208470 -10.836700 -8.888540 3.542210 31.977400 0.386406 -6.724680 -29.411100 -5.551570 5.431630 -20.731701 -7.298860 -2.490820 36.874001 -1.465030 -6.130450 -37.741798 -4.738750 
0.910989 48.056377 19.285299 -4.833980 0.312500 70.428902 2.483130 14.845000 -2.086720 -0.752050 -22.690701 -2.919630 5.693540 36.597198 -8.127100 4.916700 21.392500 -3.361870 -1.998780 -0.069785 1.998780 -80.416801 8.655850 6.381580 -1.280710 -1.927510 -50.940800 -0.082648 -13.613000 0.145325 1.998780 -0.069785 -1.998780 83.673203 5.708620 4.387800 0.351399 1.101110 40.618401 0.098437 23.561001 -0.062756 3.171390 -10.714800 -8.466250 3.544290 32.341801 0.387729 -5.927540 -29.804899 -3.964250 5.494650 -20.439501 -7.006830 -2.487140 36.461399 -1.445170 -6.149590 -37.117401 -4.804030 
1.023560 48.128979 21.005600 -4.843750 0.156250 69.540199 2.557470 15.087900 -2.024650 -0.685367 -22.713301 -2.729640 5.898630 36.806400 -8.309950 4.957310 21.519300 -3.413170 -1.998780 -0.069785 1.998780 -80.795799 6.699720 7.203450 -1.218610 -1.986580 -48.498798 -0.081488 -15.322000 0.149111 1.998780 -0.069785 -1.998780 84.721703 5.700930 3.965650 0.347564 1.099040 40.374401 0.098358 23.649000 -0.062545 3.204190 -10.572400 -7.908930 3.529580 32.737598 0.401940 -5.161900 -30.238100 -2.476090 5.629880 -20.179399 -6.698890 -2.523280 36.084801 -1.389380 -6.060720 -36.398602 -4.775340 
1.133060 48.191677 22.719200 -4.853520 0.009766 68.563599 2.621960 15.331200 -1.968880 -0.635781 -22.725599 -2.560480 6.111960 36.953300 -8.442440 5.007810 21.616699 -3.446420 -1.998780 -0.069785 1.998780 -81.110397 4.831280 7.791860 -1.148250 -2.047790 -45.841702 -0.080700 -16.386900 0.151503 1.998780 -0.069785 -1.998780 85.686996 5.819740 3.515140 0.343874 1.097060 40.140202 0.098253 23.766001 -0.062262 3.215230 -10.495300 -7.230290 3.557940 33.247101 0.393660 -4.433950 -30.657499 -1.082220 5.739510 -19.879999 -6.464570 -2.502210 35.585899 -1.400410 -5.853800 -35.476898 -4.579740 
1.235860 48.246880 24.420099 -4.833990 -0.107422 67.578102 2.655510 15.526000 -1.941360 -0.621948 -22.736700 -2.465440 6.313450 37.047501 -8.525950 5.078260 21.694599 -3.471390 -1.998780 -0.069785 1.998780 -81.383202 3.017770 8.201460 -1.071560 -2.108350 -43.057400 -0.080423 -16.747999 0.152321 1.998780 -0.069785 -1.998780 86.562599 6.065180 3.035010 0.340330 1.095190 39.915699 0.098057 23.981001 -0.061744 3.230520 -10.291700 -6.525120 3.533340 33.584400 0.405668 -3.679580 -31.023600 0.344124 5.781040 -19.621201 -6.362480 -2.505190 35.241699 -1.383420 -5.614900 -34.607399 -4.296980 
1.327740 48.291279 26.101700 -4.775390 -0.205078 66.640602 2.658000 15.672500 -1.942030 -0.670838 -22.746500 -2.465600 6.445300 37.088402 -8.549320 5.128520 21.733400 -3.475250 -1.998780 -0.069785 1.998780 -81.618797 1.218290 8.489940 -0.992301 -2.164920 -40.282700 -0.080687 -16.406000 0.151547 1.998780 -0.069785 -1.998780 87.392502 6.358790 2.544600 0.336624 1.093240 39.681400 0.097714 24.351999 -0.060844 3.147000 -10.185300 -5.912510 3.556920 34.025101 0.394148 -2.964220 -31.444099 1.674940 5.763990 -19.393499 -6.353240 -2.532560 34.993900 -1.351830 -5.311030 -33.787701 -3.947980 
1.411350 48.320377 27.766001 -4.716800 -0.234375 65.634697 2.649870 15.789700 -1.948780 -0.750404 -22.755800 -2.497510 6.523490 37.097401 -8.538370 5.158600 21.743099 -3.458010 -1.998780 -0.069785 1.998780 -81.859299 -0.626636 8.659520 -0.912438 -2.216350 -37.576199 -0.081563 -15.215000 0.148871 1.998780 -0.069785 -1.998780 88.179001 6.574740 2.073320 0.332136 1.090920 39.398300 0.097234 24.860001 -0.059606 3.007620 -9.945670 -5.350630 3.560990 34.212002 0.398107 -2.385430 -31.842899 2.765410 5.703830 -19.242901 -6.238470 -2.522080 34.847698 -1.364920 -5.073420 -33.008099 -3.655030 
1.486880 48.335678 29.411900 -4.677740 -0.234375 64.560501 2.621170 15.887900 -1.967850 -0.850882 -22.764601 -2.561170 6.521570 37.053902 -8.478290 5.168570 21.733299 -3.439220 -1.998780 -0.069785 1.998780 -82.117302 -2.634500 8.712290 -0.832339 -2.262790 -34.938000 -0.083088 -12.910000 0.143786 1.998780 -0.069785 -1.998780 88.928299 6.692290 1.640900 0.326547 1.088060 39.046902 0.096650 25.455000 -0.058140 2.832520 -9.673370 -4.884790 3.581320 34.288300 0.376075 -1.922140 -32.304600 3.587610 5.676900 -19.219999 -6.012830 -2.540980 34.874699 -1.327430 -4.844520 -32.290501 -3.417670 
1.555720 48.341579 31.041700 -4.638670 -0.195312 63.417900 2.551140 15.937800 -1.982220 -0.988223 -22.792700 -2.646330 6.467390 36.967999 -8.375630 5.168330 21.684401 -3.409820 -1.998780 -0.069785 1.998780 -82.407600 -4.913330 8.662080 -0.751412 -2.304890 -32.338699 -0.085027 -9.315970 0.136059 1.998780 -0.069785 -1.998780 89.640503 6.692490 1.227940 0.319226 1.084380 38.588100 0.096159 25.944000 -0.056927 2.608980 -9.407390 -4.473520 3.581180 34.376701 0.369296 -1.552230 -32.831501 4.258560 5.630400 -19.277500 -5.695480 -2.545240 34.982899 -1.338280 -4.599140 -31.581800 -3.101950 
